<svg width="84" height="44" viewBox="0 0 84 44" fill="none" xmlns="http://www.w3.org/2000/svg">
<path fill-rule="evenodd" clip-rule="evenodd" d="M1.6731 3.35614L7.35669 3.32684L8.74992 6.66669H33.33C33.92 6.66669 34.4688 6.97867 34.7688 7.487C35.0688 7.997 35.0767 8.62723 34.7883 9.1439L28.7825 19.9512C28.1958 21.0079 27.0807 21.6667 25.8691 21.6667H13.4211L11.4615 24.8047L11.5689 25H31.6666V28.3334H11.5689C10.3123 28.3334 9.15484 27.6511 8.54484 26.5528C7.93484 25.4544 7.96932 24.1071 8.63599 23.0404L10.6314 19.847L5.13989 6.6732L1.68937 6.68947L1.6731 3.35614ZM25.8691 18.3334L30.498 10H10.1366L13.6099 18.3334H25.8691ZM9.30956 30.9763C9.93468 30.3512 10.7825 30 11.6666 30C12.5506 30 13.3985 30.3512 14.0236 30.9763C14.6487 31.6015 14.9999 32.4493 14.9999 33.3334C14.9999 34.2174 14.6487 35.0653 14.0236 35.6904C13.3985 36.3155 12.5506 36.6667 11.6666 36.6667C10.7825 36.6667 9.93468 36.3155 9.30956 35.6904C8.68444 35.0653 8.33325 34.2174 8.33325 33.3334C8.33325 32.4493 8.68444 31.6015 9.30956 30.9763ZM25.9762 30.9763C26.6014 30.3512 27.4492 30 28.3333 30C29.2173 30 30.0652 30.3512 30.6903 30.9763C31.3154 31.6015 31.6666 32.4493 31.6666 33.3334C31.6666 34.2174 31.3154 35.0653 30.6903 35.6904C30.0652 36.3155 29.2173 36.6667 28.3333 36.6667C27.4492 36.6667 26.6014 36.3155 25.9762 35.6904C25.3511 35.0653 24.9999 34.2174 24.9999 33.3334C24.9999 32.4493 25.3511 31.6015 25.9762 30.9763Z" fill="white"/>
<path d="M48.7021 33.6846C48.6247 34.7555 48.2282 35.5986 47.5127 36.2139C46.8018 36.8291 45.863 37.1367 44.6963 37.1367C43.4202 37.1367 42.4154 36.7083 41.6816 35.8516C40.9525 34.9902 40.5879 33.8099 40.5879 32.3105V31.7021C40.5879 30.7451 40.7565 29.902 41.0938 29.1729C41.431 28.4437 41.9118 27.8854 42.5361 27.498C43.165 27.1061 43.8942 26.9102 44.7236 26.9102C45.8721 26.9102 46.7972 27.2178 47.499 27.833C48.2008 28.4482 48.6064 29.3118 48.7158 30.4238H46.665C46.6149 29.7812 46.4349 29.3164 46.125 29.0293C45.8197 28.7376 45.3525 28.5918 44.7236 28.5918C44.04 28.5918 43.5273 28.8379 43.1855 29.3301C42.8483 29.8177 42.6751 30.5765 42.666 31.6064V32.3584C42.666 33.4339 42.8278 34.2201 43.1514 34.7168C43.4795 35.2135 43.9945 35.4619 44.6963 35.4619C45.3298 35.4619 45.8014 35.3184 46.1113 35.0312C46.4258 34.7396 46.6058 34.2907 46.6514 33.6846H48.7021ZM54.2051 37C54.1139 36.8223 54.0479 36.6012 54.0068 36.3369C53.5283 36.8701 52.9062 37.1367 52.1406 37.1367C51.416 37.1367 50.8145 36.9271 50.3359 36.5078C49.862 36.0885 49.625 35.5599 49.625 34.9219C49.625 34.138 49.9144 33.5365 50.4932 33.1172C51.0765 32.6979 51.9173 32.486 53.0156 32.4814H53.9248V32.0576C53.9248 31.7158 53.8359 31.4424 53.6582 31.2373C53.485 31.0322 53.2093 30.9297 52.8311 30.9297C52.4984 30.9297 52.2363 31.0094 52.0449 31.1689C51.8581 31.3285 51.7646 31.5472 51.7646 31.8252H49.7891C49.7891 31.3968 49.9212 31.0003 50.1855 30.6357C50.4499 30.2712 50.8236 29.9863 51.3066 29.7812C51.7897 29.5716 52.332 29.4668 52.9336 29.4668C53.8451 29.4668 54.5674 29.6969 55.1006 30.1572C55.6383 30.613 55.9072 31.2555 55.9072 32.085V35.291C55.9118 35.9928 56.0098 36.5238 56.2012 36.8838V37H54.2051ZM52.5713 35.626C52.863 35.626 53.1318 35.5622 53.3779 35.4346C53.624 35.3024 53.8063 35.127 53.9248 34.9082V33.6367H53.1865C52.1976 33.6367 51.6712 33.9785 51.6074 34.6621L51.6006 34.7783C51.6006 35.0244 51.6872 35.2272 51.8604 35.3867C52.0335 35.5462 52.2705 35.626 52.5713 35.626ZM61.5811 31.4561C61.3122 31.4196 61.0752 31.4014 60.8701 31.4014C60.1227 31.4014 59.6328 31.6543 59.4004 32.1602V37H57.4248V29.6035H59.291L59.3457 30.4854C59.7422 29.8063 60.2913 29.4668 60.9932 29.4668C61.2119 29.4668 61.417 29.4964 61.6084 29.5557L61.5811 31.4561ZM66.6943 31.4561C66.4255 31.4196 66.1885 31.4014 65.9834 31.4014C65.236 31.4014 64.7461 31.6543 64.5137 32.1602V37H62.5381V29.6035H64.4043L64.459 30.4854C64.8555 29.8063 65.4046 29.4668 66.1064 29.4668C66.3252 29.4668 66.5303 29.4964 66.7217 29.5557L66.6943 31.4561ZM69.7363 37H67.7539V29.6035H69.7363V37ZM67.6377 27.6895C67.6377 27.3932 67.7357 27.1494 67.9316 26.958C68.1322 26.7666 68.4033 26.6709 68.7451 26.6709C69.0824 26.6709 69.3512 26.7666 69.5518 26.958C69.7523 27.1494 69.8525 27.3932 69.8525 27.6895C69.8525 27.9902 69.75 28.2363 69.5449 28.4277C69.3444 28.6191 69.0778 28.7148 68.7451 28.7148C68.4124 28.7148 68.1436 28.6191 67.9385 28.4277C67.738 28.2363 67.6377 27.9902 67.6377 27.6895ZM73.7354 27.7852V29.6035H75V31.0527H73.7354V34.7441C73.7354 35.0176 73.7878 35.2135 73.8926 35.332C73.9974 35.4505 74.1979 35.5098 74.4941 35.5098C74.7129 35.5098 74.9066 35.4938 75.0752 35.4619V36.959C74.6878 37.0775 74.2891 37.1367 73.8789 37.1367C72.4935 37.1367 71.7871 36.4372 71.7598 35.0381V31.0527H70.6797V29.6035H71.7598V27.7852H73.7354ZM75.5879 33.2334C75.5879 32.4997 75.7292 31.8457 76.0117 31.2715C76.2943 30.6973 76.6999 30.2529 77.2285 29.9385C77.7617 29.624 78.3792 29.4668 79.0811 29.4668C80.0791 29.4668 80.8926 29.7721 81.5215 30.3828C82.1549 30.9935 82.5081 31.8229 82.5811 32.8711L82.5947 33.377C82.5947 34.5117 82.278 35.4232 81.6445 36.1113C81.0111 36.7949 80.1611 37.1367 79.0947 37.1367C78.0283 37.1367 77.1761 36.7949 76.5381 36.1113C75.9046 35.4277 75.5879 34.498 75.5879 33.3223V33.2334ZM77.5635 33.377C77.5635 34.0788 77.6956 34.6165 77.96 34.9902C78.2243 35.3594 78.6025 35.5439 79.0947 35.5439C79.5732 35.5439 79.9469 35.3617 80.2158 34.9971C80.4847 34.6279 80.6191 34.04 80.6191 33.2334C80.6191 32.5452 80.4847 32.012 80.2158 31.6338C79.9469 31.2555 79.5687 31.0664 79.0811 31.0664C78.598 31.0664 78.2243 31.2555 77.96 31.6338C77.6956 32.0075 77.5635 32.5885 77.5635 33.377Z" fill="white"/>
</svg>
